<?xml version="1.0" encoding="UTF-8"?>
<svg width="32px" height="32px" viewBox="0 0 32 32" version="1.1" xmlns="http://www.w3.org/2000/svg" xmlns:xlink="http://www.w3.org/1999/xlink">
    <title>Admin-inactive</title>
    <g id="Page-1" stroke="none" stroke-width="1" fill="none" fill-rule="evenodd">
        <g id="Dashboard---v2" transform="translate(-20.000000, -504.000000)">
            <g id="SideBar">
                <g id="Group-3" transform="translate(0.000000, 90.000000)">
                    <g id="Group-2-Copy-6" transform="translate(0.000000, 406.000000)">
                        <g id="Admin-inactive" transform="translate(20.000000, 8.000000)">
                            <g id="verified_user-24px" transform="translate(4.000000, 4.000000)">
                                <polygon id="Path" points="0 0 24 0 24 24 0 24"></polygon>
                                <path d="M12,1 L3,5 L3,11 C3,16.55 6.84,21.74 12,23 C17.16,21.74 21,16.55 21,11 L21,5 L12,1 Z M19,11 C19,15.52 16.02,19.69 12,20.93 C7.98,19.69 5,15.52 5,11 L5,6.3 L12,3.19 L19,6.3 L19,11 Z M7.41,11.59 L6,13 L10,17 L18,9 L16.59,7.58 L10,14.17 L7.41,11.59 Z" id="Shape" fill="#D6D6D6" fill-rule="nonzero"></path>
                            </g>
                        </g>
                    </g>
                </g>
            </g>
        </g>
    </g>
</svg>