<?xml version="1.0" encoding="UTF-8"?>
<svg width="16px" height="16px" viewBox="0 0 16 16" version="1.1" xmlns="http://www.w3.org/2000/svg" xmlns:xlink="http://www.w3.org/1999/xlink">
    <title>arrow_circle_down-18dp</title>
    <g id="Page-1" stroke="none" stroke-width="1" fill="none" fill-rule="evenodd">
        <g id="Dashboard---v2" transform="translate(-537.000000, -995.000000)">
            <g id="Group-17" transform="translate(280.000000, 853.000000)">
                <g id="Group-10-Copy-3">
                    <g id="Group-9" transform="translate(20.000000, 20.000000)">
                        <g id="arrow_circle_down-18dp" transform="translate(245.000000, 130.000000) scale(1, -1) translate(-245.000000, -130.000000) translate(237.000000, 122.000000)">
                            <rect id="Rectangle" x="0" y="0" width="16" height="16"></rect>
                            <path d="M8,1.33333333 C11.68,1.33333333 14.6666667,4.32 14.6666667,8 C14.6666667,11.68 11.68,14.6666667 8,14.6666667 C4.32,14.6666667 1.33333333,11.68 1.33333333,8 C1.33333333,4.32 4.32,1.33333333 8,1.33333333 Z M7.61297061,3.72671516 L4.60058985,6.91028384 C4.26588087,7.26401369 4.50341627,7.88018828 4.98928414,7.88018828 L6.92195853,7.88018828 L6.92195853,11.3033804 C6.92195853,11.9309656 7.4078264,12.4444444 8.0016649,12.4444444 C8.5955034,12.4444444 9.08137126,11.9309656 9.08137126,11.3033804 L9.08137126,7.88018828 L11.0140457,7.88018828 C11.4999135,7.88018828 11.7374489,7.26401369 11.3919429,6.91028384 L8.37956213,3.72671516 C8.16362085,3.49850235 7.82891188,3.49850235 7.61297061,3.72671516 Z" id="Shape" fill="#FF6B6B" fill-rule="nonzero"></path>
                        </g>
                    </g>
                </g>
            </g>
        </g>
    </g>
</svg>