<?xml version="1.0" encoding="UTF-8"?>
<svg width="32px" height="32px" viewBox="0 0 32 32" version="1.1" xmlns="http://www.w3.org/2000/svg" xmlns:xlink="http://www.w3.org/1999/xlink">
    <title>Customer-Inactive</title>
    <g id="Page-1" stroke="none" stroke-width="1" fill="none" fill-rule="evenodd">
        <g id="Dashboard---v2" transform="translate(-20.000000, -214.000000)">
            <g id="SideBar">
                <g id="Group-3" transform="translate(0.000000, 90.000000)">
                    <g id="Group-2-Copy-2" transform="translate(0.000000, 116.000000)">
                        <g id="Customer-Inactive" transform="translate(20.000000, 8.000000)">
                            <g id="account_box-24px" transform="translate(4.000000, 4.000000)">
                                <polygon id="Path" points="0 0 24 0 24 24 0 24"></polygon>
                                <path d="M19,5 L19,19 L5,19 L5,5 L19,5 M19,3 L5,3 C3.89,3 3,3.9 3,5 L3,19 C3,20.1 3.89,21 5,21 L19,21 C20.1,21 21,20.1 21,19 L21,5 C21,3.9 20.1,3 19,3 Z M12,12 C10.35,12 9,10.65 9,9 C9,7.35 10.35,6 12,6 C13.65,6 15,7.35 15,9 C15,10.65 13.65,12 12,12 Z M12,8 C11.45,8 11,8.45 11,9 C11,9.55 11.45,10 12,10 C12.55,10 13,9.55 13,9 C13,8.45 12.55,8 12,8 Z M18,18 L6,18 L6,16.47 C6,13.97 9.97,12.89 12,12.89 C14.03,12.89 18,13.97 18,16.47 L18,18 Z M8.31,16 L15.69,16 C15,15.44 13.31,14.88 12,14.88 C10.69,14.88 8.99,15.44 8.31,16 L8.31,16 Z" id="Shape" fill="#D6D6D6" fill-rule="nonzero"></path>
                            </g>
                        </g>
                    </g>
                </g>
            </g>
        </g>
    </g>
</svg>