<?xml version="1.0" encoding="UTF-8"?>
<svg width="32px" height="32px" viewBox="0 0 32 32" version="1.1" xmlns="http://www.w3.org/2000/svg" xmlns:xlink="http://www.w3.org/1999/xlink">
    <title>Dashboard-Active</title>
    <g id="Page-1" stroke="none" stroke-width="1" fill="none" fill-rule="evenodd">
        <g id="Dashboard---v2" transform="translate(-20.000000, -98.000000)">
            <g id="SideBar">
                <g id="Group-3" transform="translate(0.000000, 90.000000)">
                    <g id="Group-2">
                        <g id="Dashboard-Active" transform="translate(20.000000, 8.000000)">
                            <g id="dashboard-24px-(1)" transform="translate(4.000000, 4.000000)">
                                <polygon id="Path" points="0 0 24 0 24 24 0 24"></polygon>
                                <path d="M4,13 L10,13 C10.55,13 11,12.55 11,12 L11,4 C11,3.45 10.55,3 10,3 L4,3 C3.45,3 3,3.45 3,4 L3,12 C3,12.55 3.45,13 4,13 Z M4,21 L10,21 C10.55,21 11,20.55 11,20 L11,16 C11,15.45 10.55,15 10,15 L4,15 C3.45,15 3,15.45 3,16 L3,20 C3,20.55 3.45,21 4,21 Z M14,21 L20,21 C20.55,21 21,20.55 21,20 L21,12 C21,11.45 20.55,11 20,11 L14,11 C13.45,11 13,11.45 13,12 L13,20 C13,20.55 13.45,21 14,21 Z M13,4 L13,8 C13,8.55 13.45,9 14,9 L20,9 C20.55,9 21,8.55 21,8 L21,4 C21,3.45 20.55,3 20,3 L14,3 C13.45,3 13,3.45 13,4 Z" id="Shape" fill="#FFFFFF" fill-rule="nonzero"></path>
                            </g>
                        </g>
                    </g>
                </g>
            </g>
        </g>
    </g>
</svg>