<?xml version="1.0" encoding="UTF-8"?>
<svg width="20px" height="20px" viewBox="0 0 20 20" version="1.1" xmlns="http://www.w3.org/2000/svg" xmlns:xlink="http://www.w3.org/1999/xlink">
    <title>date_range-24px (1)</title>
    <g id="Page-1" stroke="none" stroke-width="1" fill="none" fill-rule="evenodd">
        <g id="Dashboard---v2" transform="translate(-510.000000, -874.000000)">
            <g id="Group-17" transform="translate(280.000000, 853.000000)">
                <g id="Group-10-Copy-3">
                    <g id="Group-9" transform="translate(20.000000, 20.000000)">
                        <g id="Group-13" transform="translate(210.000000, 1.000000)">
                            <g id="date_range-24px-(1)">
                                <polygon id="Path" points="0 0 20 0 20 20 0 20"></polygon>
                                <path d="M7.5,9.16666667 L5.83333333,9.16666667 L5.83333333,10.8333333 L7.5,10.8333333 L7.5,9.16666667 Z M10.8333333,9.16666667 L9.16666667,9.16666667 L9.16666667,10.8333333 L10.8333333,10.8333333 L10.8333333,9.16666667 Z M14.1666667,9.16666667 L12.5,9.16666667 L12.5,10.8333333 L14.1666667,10.8333333 L14.1666667,9.16666667 Z M15.8333333,3.33333333 L15,3.33333333 L15,1.66666667 L13.3333333,1.66666667 L13.3333333,3.33333333 L6.66666667,3.33333333 L6.66666667,1.66666667 L5,1.66666667 L5,3.33333333 L4.16666667,3.33333333 C3.24166667,3.33333333 2.50833333,4.08333333 2.50833333,5 L2.5,16.6666667 C2.5,17.5833333 3.24166667,18.3333333 4.16666667,18.3333333 L15.8333333,18.3333333 C16.75,18.3333333 17.5,17.5833333 17.5,16.6666667 L17.5,5 C17.5,4.08333333 16.75,3.33333333 15.8333333,3.33333333 Z M15.8333333,16.6666667 L4.16666667,16.6666667 L4.16666667,7.5 L15.8333333,7.5 L15.8333333,16.6666667 Z" id="Shape" fill="#9A9A9A" fill-rule="nonzero"></path>
                            </g>
                        </g>
                    </g>
                </g>
            </g>
        </g>
    </g>
</svg>