<?xml version="1.0" encoding="UTF-8"?>
<svg width="16px" height="16px" viewBox="0 0 16 16" version="1.1" xmlns="http://www.w3.org/2000/svg" xmlns:xlink="http://www.w3.org/1999/xlink">
    <title>Delete</title>
    <g id="Page-1" stroke="none" stroke-width="1" fill="none" fill-rule="evenodd">
        <g id="Inventory-Add---More" transform="translate(-1206.000000, -387.000000)">
            <g id="Group-42" transform="translate(1194.000000, 344.000000)">
                <g id="Group-38" transform="translate(12.000000, 42.000000)">
                    <g id="Delete" transform="translate(0.000000, 1.000000)">
                        <polygon id="Path" points="0 0 16 0 16 16 0 16"></polygon>
                        <path d="M10.6666667,6 L10.6666667,12.6666667 L5.33333333,12.6666667 L5.33333333,6 L10.6666667,6 M9.66666667,2 L6.33333333,2 L5.66666667,2.66666667 L3.33333333,2.66666667 L3.33333333,4 L12.6666667,4 L12.6666667,2.66666667 L10.3333333,2.66666667 L9.66666667,2 Z M12,4.66666667 L4,4.66666667 L4,12.6666667 C4,13.4 4.6,14 5.33333333,14 L10.6666667,14 C11.4,14 12,13.4 12,12.6666667 L12,4.66666667 Z" id="Shape" fill="#333333" fill-rule="nonzero"></path>
                    </g>
                </g>
            </g>
        </g>
    </g>
</svg>