<?xml version="1.0" encoding="UTF-8"?>
<svg width="24px" height="24px" viewBox="0 0 24 24" version="1.1" xmlns="http://www.w3.org/2000/svg" xmlns:xlink="http://www.w3.org/1999/xlink">
    <title>download</title>
    <g id="Page-1" stroke="none" stroke-width="1" fill="none" fill-rule="evenodd">
        <g id="Inventory" transform="translate(-1072.000000, -94.000000)">
            <g id="Group-19" transform="translate(280.000000, 86.000000)">
                <g id="Group-6-Copy-3" transform="translate(780.000000, 0.000000)">
                    <g id="Group-34">
                        <g id="download" transform="translate(12.000000, 8.000000)">
                            <polygon id="Path" points="0 0 24 0 24 24 0 24"></polygon>
                            <path d="M13,5 L13,11 L14.17,11 L12,13.17 L9.83,11 L11,11 L11,5 L13,5 M15,3 L9,3 L9,9 L5,9 L12,16 L19,9 L15,9 L15,3 Z M19,18 L5,18 L5,20 L19,20 L19,18 Z" id="Shape" fill="#333333" fill-rule="nonzero"></path>
                        </g>
                    </g>
                </g>
            </g>
        </g>
    </g>
</svg>