<?xml version="1.0" encoding="UTF-8"?>
<svg width="24px" height="24px" viewBox="0 0 24 24" version="1.1" xmlns="http://www.w3.org/2000/svg" xmlns:xlink="http://www.w3.org/1999/xlink">
    <title>filter_alt-24px </title>
    <g id="Page-1" stroke="none" stroke-width="1" fill="none" fill-rule="evenodd">
        <g id="Inventory" transform="translate(-1140.000000, -93.000000)">
            <g id="Group-19" transform="translate(280.000000, 86.000000)">
                <g id="Group-6-Copy-2" transform="translate(848.000000, 0.000000)">
                    <g id="Group-34">
                        <g id="filter_alt-24px-" transform="translate(12.000000, 7.000000)">
                            <path d="M0,0.923076923 L24,0.923076923 M24,23.0769231 L0,23.0769231" id="Shape"></path>
                            <path d="M7,6.46153846 L17,6.46153846 L11.99,12.2769231 L7,6.46153846 Z M4.25,6.10153846 C6.27,8.49230769 10,12.9230769 10,12.9230769 L10,18.4615385 C10,18.9692308 10.45,19.3846154 11,19.3846154 L13,19.3846154 C13.55,19.3846154 14,18.9692308 14,18.4615385 L14,12.9230769 C14,12.9230769 17.72,8.49230769 19.74,6.10153846 C20.25,5.49230769 19.78,4.61538462 18.95,4.61538462 L5.04,4.61538462 C4.21,4.61538462 3.74,5.49230769 4.25,6.10153846 Z" id="Shape" fill="#333333" fill-rule="nonzero"></path>
                            <polygon id="Path" points="0 0.923076923 24 0.923076923 24 23.0769231 0 23.0769231"></polygon>
                        </g>
                    </g>
                </g>
            </g>
        </g>
    </g>
</svg>