<?xml version="1.0" encoding="UTF-8"?>
<svg width="16px" height="16px" viewBox="0 0 16 16" version="1.1" xmlns="http://www.w3.org/2000/svg" xmlns:xlink="http://www.w3.org/1999/xlink">
    <title>help-24px</title>
    <g id="Page-1" stroke="none" stroke-width="1" fill="none" fill-rule="evenodd" opacity="0.400000006">
        <g id="Inventory" transform="translate(-1149.000000, -273.000000)">
            <g id="Group-12" transform="translate(280.000000, 146.000000)">
                <g id="Group-11">
                    <g id="Group-10" transform="translate(0.000000, 126.000000)">
                        <g id="Group-20" transform="translate(869.000000, 0.000000)">
                            <g id="help-24px" transform="translate(0.000000, 1.000000)">
                                <polygon id="Path" points="0 0 16 0 16 16 0 16"></polygon>
                                <path d="M8,1.33333333 C4.32,1.33333333 1.33333333,4.32 1.33333333,8 C1.33333333,11.68 4.32,14.6666667 8,14.6666667 C11.68,14.6666667 14.6666667,11.68 14.6666667,8 C14.6666667,4.32 11.68,1.33333333 8,1.33333333 Z M8.66666667,12.6666667 L7.33333333,12.6666667 L7.33333333,11.3333333 L8.66666667,11.3333333 L8.66666667,12.6666667 Z M10.0466667,7.5 L9.44666667,8.11333333 C8.96666667,8.6 8.66666667,9 8.66666667,10 L7.33333333,10 L7.33333333,9.66666667 C7.33333333,8.93333333 7.63333333,8.26666667 8.11333333,7.78 L8.94,6.94 C9.18666667,6.7 9.33333333,6.36666667 9.33333333,6 C9.33333333,5.26666667 8.73333333,4.66666667 8,4.66666667 C7.26666667,4.66666667 6.66666667,5.26666667 6.66666667,6 L5.33333333,6 C5.33333333,4.52666667 6.52666667,3.33333333 8,3.33333333 C9.47333333,3.33333333 10.6666667,4.52666667 10.6666667,6 C10.6666667,6.58666667 10.4266667,7.12 10.0466667,7.5 Z" id="Shape" fill="#8F8F8F" fill-rule="nonzero"></path>
                            </g>
                        </g>
                    </g>
                </g>
            </g>
        </g>
    </g>
</svg>