<?xml version="1.0" encoding="UTF-8"?>
<svg width="24px" height="24px" viewBox="0 0 24 24" version="1.1" xmlns="http://www.w3.org/2000/svg" xmlns:xlink="http://www.w3.org/1999/xlink">
    <title>icon-email@1x</title>
    <g id="Page-1" stroke="none" stroke-width="1" fill="none" fill-rule="evenodd">
        <g id="Login" transform="translate(-507.000000, -474.000000)" fill="#B2B2B2">
            <g id="Group-12" transform="translate(-104.000000, -216.000000)">
                <g id="Group-8" transform="translate(599.000000, 453.000000)">
                    <g id="Group" transform="translate(0.000000, 175.000000)">
                        <g id="Group-4">
                            <g id="Group-7">
                                <g id="Group-3">
                                    <g id="Group-2">
                                        <g id="Group-5" transform="translate(0.000000, 54.000000)">
                                            <g id="Manual">
                                                <g id="Username-Copy">
                                                    <g id="icon-email" transform="translate(12.000000, 8.000000)">
                                                        <g id="Mail" transform="translate(2.000000, 4.000000)">
                                                            <path d="M18.5422222,0.177777778 L1.65333333,0.177777778 C0.916953667,0.177777778 0.32,0.774731445 0.32,1.51111111 L0.32,13.9555556 C0.32,14.6919352 0.916953667,15.2888889 1.65333333,15.2888889 L18.5422222,15.2888889 C19.2786019,15.2888889 19.8755556,14.6919352 19.8755556,13.9555556 L19.8755556,1.51111111 C19.8755556,0.774731445 19.2786019,0.177777778 18.5422222,0.177777778 Z M18.5422222,13.0133333 L15.0133333,9.48444444 C14.750658,9.23968101 14.3413247,9.24690322 14.0874473,9.50078062 C13.8335699,9.75465802 13.8263477,10.1639913 14.0711111,10.4266667 L17.6,13.9555556 L2.59555556,13.9555556 L6.12444444,10.4266667 C6.36920788,10.1639913 6.36198567,9.75465802 6.10810827,9.50078062 C5.85423086,9.24690322 5.44489756,9.23968101 5.18222222,9.48444444 L1.65333333,13.0133333 L1.65333333,4.45777778 L9.65333333,10.4888889 C9.89037037,10.6666667 10.2162963,10.6666667 10.4533333,10.4888889 L18.5333333,4.45333333 L18.5422222,13.0133333 Z M18.5422222,1.51111111 L18.5422222,2.79111111 L10.0666667,9.12444444 L1.65333333,2.79111111 L1.65333333,1.51111111 L18.5422222,1.51111111 Z" id="Shape"></path>
                                                        </g>
                                                    </g>
                                                </g>
                                            </g>
                                        </g>
                                    </g>
                                </g>
                            </g>
                        </g>
                    </g>
                </g>
            </g>
        </g>
    </g>
</svg>