<?xml version="1.0" encoding="UTF-8"?>
<svg width="24px" height="24px" viewBox="0 0 24 24" version="1.1" xmlns="http://www.w3.org/2000/svg" xmlns:xlink="http://www.w3.org/1999/xlink">
    <title>icon-password-lock@1x</title>
    <g id="Page-1" stroke="none" stroke-width="1" fill="none" fill-rule="evenodd">
        <g id="Login" transform="translate(-507.000000, -534.000000)" fill="#B2B2B2">
            <g id="Group-12" transform="translate(-104.000000, -216.000000)">
                <g id="Group-8" transform="translate(599.000000, 453.000000)">
                    <g id="Group" transform="translate(0.000000, 175.000000)">
                        <g id="Group-4">
                            <g id="Group-7">
                                <g id="Group-3">
                                    <g id="Group-2">
                                        <g id="Group-5" transform="translate(0.000000, 54.000000)">
                                            <g id="Manual">
                                                <g id="Username" transform="translate(0.000000, 60.000000)">
                                                    <g id="icon-password-lock" transform="translate(12.000000, 8.000000)">
                                                        <g id="Locked" transform="translate(4.000000, 2.000000)">
                                                            <path d="M15.1047619,7.33333333 L13.6761905,7.33333333 L13.6761905,5.42857143 C13.6761905,2.53565131 11.3310154,0.19047619 8.43809524,0.19047619 C5.54517512,0.19047619 3.2,2.53565131 3.2,5.42857143 L3.2,7.33333333 L1.77142857,7.33333333 C0.982450357,7.33333333 0.342857143,7.97292655 0.342857143,8.76190476 L0.342857143,18.2857143 C0.342857143,19.0746925 0.982450357,19.7142857 1.77142857,19.7142857 L15.1047619,19.7142857 C15.8937401,19.7142857 16.5333333,19.0746925 16.5333333,18.2857143 L16.5333333,8.76190476 C16.5333333,7.97292655 15.8937401,7.33333333 15.1047619,7.33333333 L15.1047619,7.33333333 Z M4.62857143,5.42857143 C4.62857143,3.32462952 6.33415333,1.61904762 8.43809524,1.61904762 C10.5420371,1.61904762 12.247619,3.32462952 12.247619,5.42857143 L12.247619,7.33333333 L4.62857143,7.33333333 L4.62857143,5.42857143 Z M15.1047619,18.2857143 L1.77142857,18.2857143 L1.77142857,8.76190476 L15.1047619,8.76190476 L15.1047619,18.2857143 Z" id="Shape"></path>
                                                            <path d="M8.67619048,15.9047619 C9.8596578,15.9047619 10.8190476,14.9453721 10.8190476,13.7619048 C10.8190476,12.5784374 9.8596578,11.6190476 8.67619048,11.6190476 C7.49272316,11.6190476 6.53333333,12.5784374 6.53333333,13.7619048 C6.53595213,14.9442856 7.49380959,15.9021431 8.67619048,15.9047619 Z M8.67619048,13.047619 C9.07067958,13.047619 9.39047619,13.3674157 9.39047619,13.7619048 C9.39047619,14.1563939 9.07067958,14.4761905 8.67619048,14.4761905 C8.28170137,14.4761905 7.96190476,14.1563939 7.96190476,13.7619048 C7.96190476,13.3674157 8.28170137,13.047619 8.67619048,13.047619 Z" id="Shape"></path>
                                                        </g>
                                                    </g>
                                                </g>
                                            </g>
                                        </g>
                                    </g>
                                </g>
                            </g>
                        </g>
                    </g>
                </g>
            </g>
        </g>
    </g>
</svg>