<?xml version="1.0" encoding="UTF-8"?>
<svg width="24px" height="24px" viewBox="0 0 24 24" version="1.1" xmlns="http://www.w3.org/2000/svg" xmlns:xlink="http://www.w3.org/1999/xlink">
    <title>icon-password-eye-show@1x</title>
    <g id="Page-1" stroke="none" stroke-width="1" fill="none" fill-rule="evenodd">
        <g id="Login" transform="translate(-909.000000, -534.000000)" fill="#B2B2B2">
            <g id="Group-12" transform="translate(-104.000000, -216.000000)">
                <g id="Group-8" transform="translate(599.000000, 453.000000)">
                    <g id="Group" transform="translate(0.000000, 175.000000)">
                        <g id="Group-4">
                            <g id="Group-7">
                                <g id="Group-3">
                                    <g id="Group-2">
                                        <g id="Group-5" transform="translate(0.000000, 54.000000)">
                                            <g id="Manual">
                                                <g id="Username" transform="translate(0.000000, 60.000000)">
                                                    <g id="icon-password-eye-show" transform="translate(414.000000, 8.000000)">
                                                        <g id="Group-19">
                                                            <g id="View-3" transform="translate(2.000000, 5.000000)">
                                                                <path d="M19.6755556,6.59111111 C19.5155556,6.32888889 15.6755556,0.177777778 10.0977778,0.177777778 C4.52,0.177777778 0.68,6.32888889 0.52,6.59111111 C0.255292847,7.02024034 0.255292847,7.56198188 0.52,7.99111111 C0.68,8.25333333 4.52,14.3822222 10.0933333,14.4 L10.12,14.4 C15.68,14.4 19.52,8.24888889 19.68,7.98666667 C19.9415218,7.5577846 19.9398038,7.01831875 19.6755556,6.59111111 L19.6755556,6.59111111 Z M10.12,13.0666667 L10.12,13.0666667 C5.23111111,13.0666667 1.67555556,7.28888889 1.67555556,7.28888889 C1.67555556,7.28888889 5.23111111,1.51111111 10.12,1.51111111 C15.0088889,1.51111111 18.5644444,7.28888889 18.5644444,7.28888889 C18.5644444,7.28888889 14.9955556,13.0666667 10.12,13.0666667 Z" id="Shape"></path>
                                                                <path d="M10.0977778,3.73333333 C8.13409867,3.73333333 6.54222222,5.32520978 6.54222222,7.28888889 C6.54222222,9.252568 8.13409867,10.8444444 10.0977778,10.8444444 C12.0614569,10.8444444 13.6533333,9.252568 13.6533333,7.28888889 C13.6533333,5.32520978 12.0614569,3.73333333 10.0977778,3.73333333 Z M10.0977778,9.51111111 C8.87047833,9.51111111 7.87555556,8.51618833 7.87555556,7.28888889 C7.87555556,6.06158944 8.87047833,5.06666667 10.0977778,5.06666667 C11.3250772,5.06666667 12.32,6.06158944 12.32,7.28888889 C12.32,8.51618833 11.3250772,9.51111111 10.0977778,9.51111111 L10.0977778,9.51111111 Z" id="Shape"></path>
                                                            </g>
                                                        </g>
                                                    </g>
                                                </g>
                                            </g>
                                        </g>
                                    </g>
                                </g>
                            </g>
                        </g>
                    </g>
                </g>
            </g>
        </g>
    </g>
</svg>