<?xml version="1.0" encoding="UTF-8"?>
<svg width="32px" height="32px" viewBox="0 0 32 32" version="1.1" xmlns="http://www.w3.org/2000/svg" xmlns:xlink="http://www.w3.org/1999/xlink">
    <title>Inventory-active</title>
    <g id="Page-1" stroke="none" stroke-width="1" fill="none" fill-rule="evenodd">
        <g id="Inventory" transform="translate(-20.000000, -156.000000)">
            <g id="SideBar">
                <g id="Group-3" transform="translate(0.000000, 90.000000)">
                    <g id="Group-2-Copy" transform="translate(0.000000, 58.000000)">
                        <g id="Inventory-active" transform="translate(20.000000, 8.000000)">
                            <g id="shopping_basket-24px" transform="translate(4.000000, 4.000000)">
                                <polygon id="Path" points="0 0 24 0 24 24 0 24"></polygon>
                                <path d="M17.21,9 L12.83,2.44 C12.64,2.16 12.32,2.02 12,2.02 C11.68,2.02 11.36,2.16 11.17,2.45 L6.79,9 L2,9 C1.45,9 1,9.45 1,10 C1,10.09 1.01,10.18 1.04,10.27 L3.58,19.54 C3.81,20.38 4.58,21 5.5,21 L18.5,21 C19.42,21 20.19,20.38 20.43,19.54 L22.97,10.27 L23,10 C23,9.45 22.55,9 22,9 L17.21,9 Z M9,9 L12,4.6 L15,9 L9,9 Z M12,17 C10.9,17 10,16.1 10,15 C10,13.9 10.9,13 12,13 C13.1,13 14,13.9 14,15 C14,16.1 13.1,17 12,17 Z" id="Shape" fill="#FFFFFF" fill-rule="nonzero"></path>
                            </g>
                        </g>
                    </g>
                </g>
            </g>
        </g>
    </g>
</svg>