<?xml version="1.0" encoding="UTF-8"?>
<svg width="16px" height="16px" viewBox="0 0 16 16" version="1.1" xmlns="http://www.w3.org/2000/svg" xmlns:xlink="http://www.w3.org/1999/xlink">
    <title>library_add_check-24px</title>
    <g id="Page-1" stroke="none" stroke-width="1" fill="none" fill-rule="evenodd">
        <g id="Inventory-Add---More" transform="translate(-1206.000000, -447.000000)">
            <g id="Group-42" transform="translate(1194.000000, 344.000000)">
                <g id="Group-41" transform="translate(12.000000, 102.000000)">
                    <g id="library_add_check-24px" transform="translate(0.000000, 1.000000)">
                        <path d="M13.3333333,2.66666667 L13.3333333,10.6666667 L5.33333333,10.6666667 L5.33333333,2.66666667 L13.3333333,2.66666667 M13.3333333,1.33333333 L5.33333333,1.33333333 C4.6,1.33333333 4,1.93333333 4,2.66666667 L4,10.6666667 C4,11.4 4.6,12 5.33333333,12 L13.3333333,12 C14.0666667,12 14.6666667,11.4 14.6666667,10.6666667 L14.6666667,2.66666667 C14.6666667,1.93333333 14.0666667,1.33333333 13.3333333,1.33333333 L13.3333333,1.33333333 Z M8.31333333,9.33333333 L6,7 L6.93333333,6.06 L8.31333333,7.44666667 L11.7333333,4 L12.6666667,4.94 L8.31333333,9.33333333 Z M2.66666667,4 L1.33333333,4 L1.33333333,13.3333333 C1.33333333,14.0666667 1.93333333,14.6666667 2.66666667,14.6666667 L12,14.6666667 L12,13.3333333 L2.66666667,13.3333333 L2.66666667,4 Z" id="Shape" fill="#333333" fill-rule="nonzero"></path>
                        <polygon id="Path" points="0 0 16 0 16 16 0 16"></polygon>
                    </g>
                </g>
            </g>
        </g>
    </g>
</svg>