<?xml version="1.0" encoding="UTF-8"?>
<svg width="16px" height="16px" viewBox="0 0 16 16" version="1.1" xmlns="http://www.w3.org/2000/svg" xmlns:xlink="http://www.w3.org/1999/xlink">
    <title>manage</title>
    <g id="Page-1" stroke="none" stroke-width="1" fill="none" fill-rule="evenodd">
        <g id="Inventory-Add---More" transform="translate(-1206.000000, -417.000000)">
            <g id="Group-42" transform="translate(1194.000000, 344.000000)">
                <g id="Group-41-Copy" transform="translate(12.000000, 72.000000)">
                    <g id="manage" transform="translate(0.000000, 1.000000)">
                        <polygon id="Path" points="0 0 16 0 16 16 0 16"></polygon>
                        <path d="M12.9533333,8.65333333 C12.98,8.44 13,8.22666667 13,8 C13,7.77333333 12.98,7.56 12.9533333,7.34666667 L14.36,6.24666667 C14.4866667,6.14666667 14.52,5.96666667 14.44,5.82 L13.1066667,3.51333333 C13.0466667,3.40666667 12.9333333,3.34666667 12.8133333,3.34666667 C12.7733333,3.34666667 12.7333333,3.35333333 12.7,3.36666667 L11.04,4.03333333 C10.6933333,3.76666667 10.32,3.54666667 9.91333333,3.38 L9.66,1.61333333 C9.64,1.45333333 9.5,1.33333333 9.33333333,1.33333333 L6.66666667,1.33333333 C6.5,1.33333333 6.36,1.45333333 6.34,1.61333333 L6.08666667,3.38 C5.68,3.54666667 5.30666667,3.77333333 4.96,4.03333333 L3.3,3.36666667 C3.26,3.35333333 3.22,3.34666667 3.18,3.34666667 C3.06666667,3.34666667 2.95333333,3.40666667 2.89333333,3.51333333 L1.56,5.82 C1.47333333,5.96666667 1.51333333,6.14666667 1.64,6.24666667 L3.04666667,7.34666667 C3.02,7.56 3,7.78 3,8 C3,8.22 3.02,8.44 3.04666667,8.65333333 L1.64,9.75333333 C1.51333333,9.85333333 1.48,10.0333333 1.56,10.18 L2.89333333,12.4866667 C2.95333333,12.5933333 3.06666667,12.6533333 3.18666667,12.6533333 C3.22666667,12.6533333 3.26666667,12.6466667 3.3,12.6333333 L4.96,11.9666667 C5.30666667,12.2333333 5.68,12.4533333 6.08666667,12.62 L6.34,14.3866667 C6.36,14.5466667 6.5,14.6666667 6.66666667,14.6666667 L9.33333333,14.6666667 C9.5,14.6666667 9.64,14.5466667 9.66,14.3866667 L9.91333333,12.62 C10.32,12.4533333 10.6933333,12.2266667 11.04,11.9666667 L12.7,12.6333333 C12.74,12.6466667 12.78,12.6533333 12.82,12.6533333 C12.9333333,12.6533333 13.0466667,12.5933333 13.1066667,12.4866667 L14.44,10.18 C14.52,10.0333333 14.4866667,9.85333333 14.36,9.75333333 L12.9533333,8.65333333 Z M11.6333333,7.51333333 C11.66,7.72 11.6666667,7.86 11.6666667,8 C11.6666667,8.14 11.6533333,8.28666667 11.6333333,8.48666667 L11.54,9.24 L12.1333333,9.70666667 L12.8533333,10.2666667 L12.3866667,11.0733333 L11.54,10.7333333 L10.8466667,10.4533333 L10.2466667,10.9066667 C9.96,11.12 9.68666667,11.28 9.41333333,11.3933333 L8.70666667,11.68 L8.6,12.4333333 L8.46666667,13.3333333 L7.53333333,13.3333333 L7.40666667,12.4333333 L7.3,11.68 L6.59333333,11.3933333 C6.30666667,11.2733333 6.04,11.12 5.77333333,10.92 L5.16666667,10.4533333 L4.46,10.74 L3.61333333,11.08 L3.14666667,10.2733333 L3.86666667,9.71333333 L4.46,9.24666667 L4.36666667,8.49333333 C4.34666667,8.28666667 4.33333333,8.13333333 4.33333333,8 C4.33333333,7.86666667 4.34666667,7.71333333 4.36666667,7.51333333 L4.46,6.76 L3.86666667,6.29333333 L3.14666667,5.73333333 L3.61333333,4.92666667 L4.46,5.26666667 L5.15333333,5.54666667 L5.75333333,5.09333333 C6.04,4.88 6.31333333,4.72 6.58666667,4.60666667 L7.29333333,4.32 L7.4,3.56666667 L7.53333333,2.66666667 L8.46,2.66666667 L8.58666667,3.56666667 L8.69333333,4.32 L9.4,4.60666667 C9.68666667,4.72666667 9.95333333,4.88 10.22,5.08 L10.8266667,5.54666667 L11.5333333,5.26 L12.38,4.92 L12.8466667,5.72666667 L12.1333333,6.29333333 L11.54,6.76 L11.6333333,7.51333333 Z M8,5.33333333 C6.52666667,5.33333333 5.33333333,6.52666667 5.33333333,8 C5.33333333,9.47333333 6.52666667,10.6666667 8,10.6666667 C9.47333333,10.6666667 10.6666667,9.47333333 10.6666667,8 C10.6666667,6.52666667 9.47333333,5.33333333 8,5.33333333 Z M8,9.33333333 C7.26666667,9.33333333 6.66666667,8.73333333 6.66666667,8 C6.66666667,7.26666667 7.26666667,6.66666667 8,6.66666667 C8.73333333,6.66666667 9.33333333,7.26666667 9.33333333,8 C9.33333333,8.73333333 8.73333333,9.33333333 8,9.33333333 Z" id="Shape" fill="#333333" fill-rule="nonzero"></path>
                    </g>
                </g>
            </g>
        </g>
    </g>
</svg>