<?xml version="1.0" encoding="UTF-8"?>
<svg width="16px" height="16px" viewBox="0 0 16 16" version="1.1" xmlns="http://www.w3.org/2000/svg" xmlns:xlink="http://www.w3.org/1999/xlink">
    <title>more_vert-24px </title>
    <g id="Page-1" stroke="none" stroke-width="1" fill="none" fill-rule="evenodd">
        <g id="Inventory" transform="translate(-1374.000000, -273.000000)">
            <g id="Group-12" transform="translate(280.000000, 146.000000)">
                <g id="Group-11">
                    <g id="Group-10" transform="translate(0.000000, 126.000000)">
                        <g id="more_vert-24px-" transform="translate(1094.000000, 1.000000)">
                            <polygon id="Path" points="0 0 16 0 16 16 0 16"></polygon>
                            <path d="M8,5.33333333 C8.73333333,5.33333333 9.33333333,4.73333333 9.33333333,4 C9.33333333,3.26666667 8.73333333,2.66666667 8,2.66666667 C7.26666667,2.66666667 6.66666667,3.26666667 6.66666667,4 C6.66666667,4.73333333 7.26666667,5.33333333 8,5.33333333 Z M8,6.66666667 C7.26666667,6.66666667 6.66666667,7.26666667 6.66666667,8 C6.66666667,8.73333333 7.26666667,9.33333333 8,9.33333333 C8.73333333,9.33333333 9.33333333,8.73333333 9.33333333,8 C9.33333333,7.26666667 8.73333333,6.66666667 8,6.66666667 Z M8,10.6666667 C7.26666667,10.6666667 6.66666667,11.2666667 6.66666667,12 C6.66666667,12.7333333 7.26666667,13.3333333 8,13.3333333 C8.73333333,13.3333333 9.33333333,12.7333333 9.33333333,12 C9.33333333,11.2666667 8.73333333,10.6666667 8,10.6666667 Z" id="Shape" fill="#333333" fill-rule="nonzero"></path>
                        </g>
                    </g>
                </g>
            </g>
        </g>
    </g>
</svg>