<?xml version="1.0" encoding="UTF-8"?>
<svg width="24px" height="24px" viewBox="0 0 24 24" version="1.1" xmlns="http://www.w3.org/2000/svg" xmlns:xlink="http://www.w3.org/1999/xlink">
    <title>vendor-active</title>
    <g id="Page-1" stroke="none" stroke-width="1" fill="none" fill-rule="evenodd">
        <g id="NewVendor" transform="translate(-24.000000, -334.000000)">
            <g id="SideBar">
                <g id="Group-3" transform="translate(0.000000, 90.000000)">
                    <g id="Group-2-Copy-4" transform="translate(0.000000, 232.000000)">
                        <g id="Group" transform="translate(20.000000, 8.000000)">
                            <g id="vendor-active" transform="translate(4.000000, 4.000000)">
                                <polygon id="Path" points="0 0 24 0 24 24 0 24"></polygon>
                                <path d="M20,4 L4,4 L4,6 L20,6 L20,4 Z M21,14 L21,12 L20,7 L4,7 L3,12 L3,14 L4,14 L4,20 L14,20 L14,14 L18,14 L18,20 L20,20 L20,14 L21,14 Z M12,18 L6,18 L6,14 L12,14 L12,18 Z" id="Shape" fill="#FFFFFF" fill-rule="nonzero"></path>
                            </g>
                        </g>
                    </g>
                </g>
            </g>
        </g>
    </g>
</svg>